#!OML:ASF F:\VICON\USERDATA\INSTALL\rory3\rory3.ASF
:FULLY-SPECIFIED
:DEGREES
367
root 0.523754 17.2179 1.02397 9.18962 -0.386359 -1.59995
lowerback -12.2792 -1.37799 -1.32441
upperback -4.95389 -1.72359 1.78662
thorax 1.78974 -0.833278 2.36938
lowerneck -14.8 -2.24774 -6.67855
upperneck 29.8147 -2.58904 3.80701
head 12.4669 -1.43035 2.21475
rclavicle 5.46658e-015 -3.18055e-015
rhumerus -46.1097 0.326449 -86.3827
rradius 31.1106
rwrist -0.269143
rhand -23.6005 -50.5846
rfingers 7.12502
rthumb 2.86317 -80.5451
lclavicle 5.46658e-015 -3.18055e-015
lhumerus -34.9406 -11.7539 94.5173
lradius 33.8321
lwrist 7.79629
lhand -33.2183 -28.2248
lfingers 7.12502
lthumb -6.42497 1.65776
rfemur -35.8359 9.60742 23.0248
rtibia 32.1531
rfoot -3.67494 -10.3458
rtoes 3.60509
lfemur 0.934264 0.463474 -18.7573
ltibia 36.0688
lfoot -2.40124 -13.0504
ltoes -18.5567
368
root 0.494996 17.2285 1.18544 9.1355 -0.277982 -2.02454
lowerback -12.3969 -1.3739 -0.921949
upperback -4.97268 -1.7659 1.87942
thorax 1.82776 -0.857498 2.23095
lowerneck -14.7753 -2.19803 -6.57687
upperneck 29.9039 -2.51928 3.71088
head 12.4903 -1.40161 2.17228
rclavicle -1.08338e-014 1.2921e-014
rhumerus -46.2556 0.49337 -86.4316
rradius 31.4685
rwrist -0.169158
rhand -23.0393 -50.7388
rfingers 7.12502
rthumb 3.40513 -80.6914
lclavicle -1.08338e-014 1.2921e-014
lhumerus -35.5506 -11.3386 94.2771
lradius 33.229
lwrist 7.84489
lhand -32.5827 -27.8385
lfingers 7.12502
lthumb -5.81136 2.06183
rfemur -35.1605 9.55346 23.7464
rtibia 32.2483
rfoot -4.1959 -10.2278
rtoes 4.33226
lfemur -0.0712095 0.833221 -17.8911
ltibia 38.4583
lfoot -0.883029 -13.7129
ltoes -17.4051
369
root 0.463995 17.2402 1.34574 9.01483 -0.253594 -2.27921
lowerback -12.3782 -1.32642 -0.743511
upperback -4.92518 -1.72454 1.89677
thorax 1.86096 -0.838882 2.15381
lowerneck -15.1482 -2.20873 -6.50601
upperneck 30.178 -2.55752 3.78091
head 12.6827 -1.40074 2.18465
rclavicle -1.39149e-015 -8.94531e-015
rhumerus -46.198 0.454189 -86.3774
rradius 31.6476
rwrist 0.514273
rhand -22.16 -51.7531
rfingers 7.12502
rthumb 4.25426 -81.6904
lclavicle -1.39149e-015 -8.94531e-015
lhumerus -36.1095 -11.0632 93.9813
lradius 33.0585
lwrist 8.30619
lhand -31.8651 -26.579
lfingers 7.12502
lthumb -5.11847 3.33916
rfemur -34.4239 9.60632 24.2691
rtibia 32.3301
rfoot -4.7277 -10.239
rtoes 4.73227
lfemur -1.03584 1.25114 -17.2367
ltibia 40.8359
lfoot 0.555286 -14.366
ltoes -17.0527
370
root 0.424149 17.2436 1.49942 8.91206 -0.417394 -2.68929
lowerback -12.3494 -1.22071 -0.605934
upperback -4.85047 -1.60566 2.03313
thorax 1.91829 -0.780749 2.23446
lowerneck -15.3238 -2.23836 -6.4864
upperneck 30.1717 -2.60184 3.8076
head 12.7201 -1.41254 2.18416
rclavicle -1.33061e-014 3.97569e-015
rhumerus -46.0312 0.462888 -86.1972
rradius 31.4894
rwrist 2.01889
rhand -21.6324 -51.1666
rfingers 7.12502
rthumb 4.76372 -81.093
lclavicle -1.33061e-014 3.97569e-015
lhumerus -36.6136 -10.8981 93.8461
lradius 32.8597
lwrist 8.99705
lhand -31.8531 -26.4238
lfingers 7.12502
lthumb -5.10693 3.49462
rfemur -33.7856 10.0291 24.9243
rtibia 32.4292
rfoot -5.15465 -10.4258
rtoes 5.36069
lfemur -2.04861 1.80983 -16.41
ltibia 43.2364
lfoot 1.91159 -15.0374
ltoes -18.2262
371
root 0.415593 17.2507 1.64512 8.81732 -0.109479 -3.01007
lowerback -12.079 -1.20718 -0.0639602
upperback -4.94344 -1.64591 2.04936
thorax 1.66281 -0.803904 1.94579
lowerneck -15.2268 -2.27468 -6.4281
upperneck 30.1293 -2.65105 3.72445
head 12.6834 -1.43901 2.13384
rclavicle -1.05729e-014 7.7526e-015
rhumerus -46.0688 0.875086 -86.3722
rradius 32.1466
rwrist 1.23238
rhand -20.969 -52.0581
rfingers 7.12502
rthumb 5.40429 -81.9692
lclavicle -1.05729e-014 7.7526e-015
lhumerus -37.3769 -10.7008 93.7943
lradius 32.1077
lwrist 8.56558
lhand -32.9551 -29.3595
lfingers 7.12502
lthumb -6.17085 0.530636
rfemur -33.1146 9.30616 25.5872
rtibia 32.5687
rfoot -5.73608 -9.99586
rtoes 5.54031
lfemur -3.12459 1.67302 -15.8666
ltibia 45.6522
lfoot 3.12001 -15.2912
ltoes -19.039
372
root 0.395775 17.2514 1.79197 8.69915 0.0792531 -3.1994
lowerback -11.9615 -1.1749 0.186221
upperback -4.89881 -1.62964 2.03352
thorax 1.63798 -0.798414 1.792
lowerneck -15.3227 -2.32419 -6.38704
upperneck 30.1269 -2.72348 3.71073
head 12.7065 -1.46694 2.10985
rclavicle 3.49488e-014 -2.64384e-014
rhumerus -45.8846 1.18097 -86.5459
rradius 32.4015
rwrist 0.525791
rhand -21.9272 -51.6353
rfingers 7.12502
rthumb 4.47906 -81.5679
lclavicle 3.49488e-014 -2.64384e-014
lhumerus -37.7296 -10.5318 93.527
lradius 31.6766
lwrist 8.58819
lhand -32.8696 -28.9206
lfingers 7.12502
lthumb -6.08828 0.971902
rfemur -32.4774 9.01005 26.0442
rtibia 32.7025
rfoot -6.15588 -9.91389
rtoes 5.31878
lfemur -4.34319 1.5823 -15.4597
ltibia 48.1504
lfoot 4.53349 -15.3647
ltoes -18.2213
373
root 0.374179 17.2487 1.92997 8.51283 0.258751 -3.42317
lowerback -11.7881 -1.15985 0.380623
upperback -4.7875 -1.63127 2.0603
thorax 1.65545 -0.80125 1.71185
lowerneck -15.363 -2.36195 -6.40522
upperneck 29.9732 -2.79193 3.79313
head 12.6577 -1.48617 2.13176
rclavicle -7.83957e-015 1.66979e-014
rhumerus -45.5347 1.21135 -86.4016
rradius 31.939
rwrist 2.01363
rhand -22.6504 -49.7645
rfingers 7.12502
rthumb 3.78069 -79.7107
lclavicle -7.83957e-015 1.66979e-014
lhumerus -37.9165 -10.5162 93.2826
lradius 31.1927
lwrist 8.7221
lhand -32.6862 -28.3048
lfingers 7.12502
lthumb -5.9113 1.59274
rfemur -31.8106 8.83851 26.5306
rtibia 32.824
rfoot -6.49174 -9.98993
rtoes 5.42469
lfemur -5.65054 1.58515 -14.9925
ltibia 50.6776
lfoot 5.95548 -15.2314
ltoes -16.9885
374
root 0.357426 17.2471 2.06019 8.4019 0.527076 -3.86232
lowerback -11.33 -1.14619 0.858647
upperback -4.9326 -1.65492 2.17461
thorax 1.24621 -0.816791 1.5688
lowerneck -15.1801 -2.37923 -6.59352
upperneck 29.9107 -2.83599 3.99217
head 12.6029 -1.50224 2.23427
rclavicle 1.86112e-014 -3.57812e-014
rhumerus -45.4747 1.34888 -86.2427
rradius 32.0247
rwrist 3.04575
rhand -20.689 -51.2509
rfingers 7.12502
rthumb 5.67465 -81.1549
lclavicle 1.86112e-014 -3.57812e-014
lhumerus -38.5604 -10.2602 93.1098
lradius 31.0864
lwrist 9.27841
lhand -32.4214 -27.2611
lfingers 7.12502
lthumb -5.65556 2.64345
rfemur -31.1843 8.41249 27.2708
rtibia 32.8726
rfoot -6.81932 -9.88015
rtoes 5.93623
lfemur -7.14388 1.57321 -14.3222
ltibia 53.2319
lfoot 6.41166 -14.4555
ltoes -18.0178
